<svg xmlns="http://www.w3.org/2000/svg" width="22" height="22" viewBox="0 0 22 22"><defs><style>.a{fill:#fff;}</style></defs><g transform="translate(0 0)"><g transform="translate(0 0)"><path class="a" d="M0,0H8a2,2,0,0,1,2,2V7a0,0,0,0,1,0,0H0A0,0,0,0,1,0,7V0A0,0,0,0,1,0,0Z" transform="translate(12 0)"/><path class="a" d="M2,0H9A0,0,0,0,1,9,0V12a0,0,0,0,1,0,0H0a0,0,0,0,1,0,0V2A2,2,0,0,1,2,0Z" transform="translate(0 0)"/><path class="a" d="M0,0H9A0,0,0,0,1,9,0V8A0,0,0,0,1,9,8H2A2,2,0,0,1,0,6V0A0,0,0,0,1,0,0Z" transform="translate(0 14)"/><path class="a" d="M0,0H10a0,0,0,0,1,0,0V11a2,2,0,0,1-2,2H0a0,0,0,0,1,0,0V0A0,0,0,0,1,0,0Z" transform="translate(12 9)"/></g></g></svg>